<svg width="136" height="137" viewBox="0 0 136 137" fill="none" xmlns="http://www.w3.org/2000/svg">
<g id="Group">
<path id="Vector" d="M93.4102 64.6035V115.604C93.4102 117.951 95.3131 119.854 97.6602 119.854H123.16C125.507 119.854 127.41 117.951 127.41 115.604V64.6035C127.41 62.2562 125.507 60.3535 123.16 60.3535H97.6602C95.3131 60.3535 93.4102 62.2562 93.4102 64.6035Z" fill="#5B5B5B"/>
<path id="Vector_2" d="M55.1172 43.4863C52.7699 43.4863 50.8672 45.389 50.8672 47.7363V115.736C50.8672 118.083 52.7699 119.986 55.1172 119.986H80.6172C82.9642 119.986 84.8672 118.083 84.8672 115.736V47.7363C84.8672 45.389 82.9642 43.4863 80.6172 43.4863H55.1172Z" fill="#5B5B5B"/>
<path id="Vector_3" d="M12.793 119.854H38.293C40.6403 119.854 42.543 117.951 42.543 115.604V90.1035C42.543 87.7562 40.6403 85.8535 38.293 85.8535H12.793C10.4459 85.8535 8.54297 87.7562 8.54297 90.1035V115.604C8.54297 117.951 10.4459 119.854 12.793 119.854Z" fill="#5B5B5B"/>
<path id="Vector_4" d="M1.0625 136.545H134.938C135.524 136.545 136 136.069 136 135.482V129.107C136 128.521 135.524 128.045 134.938 128.045H1.0625C0.475745 128.045 0 128.521 0 129.107V135.482C0 136.069 0.475745 136.545 1.0625 136.545Z" fill="#5B5B5B"/>
<path id="Vector_5" d="M25.6328 68.8091C32.6744 68.8091 38.3828 63.1008 38.3828 56.0591C38.3828 54.0384 37.8699 52.1536 37.0331 50.4559L62.0965 24.7548C63.7222 25.5066 65.5154 25.9551 67.4243 25.9551C71.2183 25.9551 74.5874 24.2651 76.923 21.6353L97.5845 30.0032C97.5762 30.1916 97.5285 30.3687 97.5285 30.5591C97.5285 37.6008 103.237 43.3091 110.278 43.3091C117.32 43.3091 123.028 37.6008 123.028 30.5591C123.028 23.5175 117.32 17.8091 110.278 17.8091C106.485 17.8091 103.116 19.4986 100.781 22.1279L80.1184 13.7599C80.1267 13.5719 80.1744 13.3952 80.1744 13.2051C80.1744 6.16342 74.466 0.455078 67.4244 0.455078C60.3827 0.455078 54.6744 6.16342 54.6744 13.2051C54.6744 15.2258 55.1872 17.1106 56.0241 18.8084L30.9604 44.5091C29.3347 43.7576 27.5415 43.3091 25.6328 43.3091C18.5912 43.3091 12.8828 49.0175 12.8828 56.0591C12.8828 63.1008 18.5911 68.8091 25.6328 68.8091Z" fill="#5B5B5B"/>
</g>
</svg>
