<svg width="128" height="81" viewBox="0 0 128 81" fill="none" xmlns="http://www.w3.org/2000/svg">
<g id="Group 9086">
<path id="Vector" d="M63.9978 36.003C73.6858 36.003 81.5394 28.1494 81.5394 18.4615C81.5394 8.77354 73.6858 0.919922 63.9978 0.919922C54.3099 0.919922 46.4563 8.77354 46.4563 18.4615C46.4563 28.1494 54.3099 36.003 63.9978 36.003Z" fill="#5B5B5B"/>
<path id="Vector_2" d="M80.562 43.2729H66.9581L70.8873 71.0778L63.9985 76.8318L57.1098 71.082L61.0389 43.2772H47.4435C40.9358 43.2772 35.6687 48.5528 35.6687 55.052V80.0793H92.3326V55.052C92.3284 48.5485 87.0612 43.2729 80.562 43.2729Z" fill="#5B5B5B"/>
<path id="Vector_3" d="M103.434 41.3474C111.834 41.3474 118.643 34.5382 118.643 26.1388C118.643 17.7393 111.834 10.9302 103.434 10.9302C95.0349 10.9302 88.2258 17.7393 88.2258 26.1388C88.2258 34.5382 95.0349 41.3474 103.434 41.3474Z" fill="#5B5B5B"/>
<path id="Vector_4" d="M117.792 47.6465H94.9451C96.0925 49.8693 96.7572 52.3801 96.7572 55.0476V80.0748H128V57.8589C127.996 52.2235 123.423 47.6465 117.792 47.6465Z" fill="#5B5B5B"/>
<path id="Vector_5" d="M24.5635 41.3467C32.9606 41.3467 39.7679 34.5395 39.7679 26.1424C39.7679 17.7452 32.9606 10.938 24.5635 10.938C16.1664 10.938 9.35913 17.7452 9.35913 26.1424C9.35913 34.5395 16.1664 41.3467 24.5635 41.3467Z" fill="#5B5B5B"/>
<path id="Vector_6" d="M0 57.8643V80.0802H31.2513V55.0529C31.2513 52.3855 31.9033 49.8747 33.055 47.6519H10.204C4.57274 47.6476 0 52.2246 0 57.8643Z" fill="#5B5B5B"/>
</g>
</svg>
