<svg width="112" height="113" viewBox="0 0 112 113" fill="none" xmlns="http://www.w3.org/2000/svg">
<path id="Vector" d="M46.439 33.2805H38.2439V23.8561C38.2439 23.3098 38.3805 22.9 38.6537 22.4902L45.3463 11.4268C46.0293 10.1976 46.439 8.69512 46.439 7.19268V0.5H65.561V7.19268C65.561 8.69512 65.9707 10.1976 66.7902 11.4268L73.4829 22.4902C73.7561 22.9 73.8927 23.4463 73.8927 23.8561V46.939H51.9024V27.8171C51.9024 26.3146 50.6732 25.0854 49.1707 25.0854C47.6683 25.0854 46.439 26.3146 46.439 27.8171V33.2805ZM24.5854 63.3293C24.5854 61.8268 25.8146 60.5976 27.3171 60.5976H46.439V38.7439H23.3561C22.8098 38.7439 22.4 38.8805 21.9902 39.1537L10.9268 45.7098C9.56098 46.5293 8.19512 46.939 6.69268 46.939H0V66.061H6.69268C8.19512 66.061 9.69756 66.4707 10.9268 67.2902L21.9902 73.8463C22.4 74.1195 22.9463 74.2561 23.3561 74.2561H32.7805V66.061H27.3171C25.8146 66.061 24.5854 64.8317 24.5854 63.3293ZM65.561 85.1829C65.561 86.6854 64.3317 87.9146 62.8293 87.9146C61.3268 87.9146 60.0976 86.6854 60.0976 85.1829V66.061H38.2439V89.1439C38.2439 89.6902 38.3805 90.1 38.6537 90.5098L45.3463 101.573C46.0293 102.802 46.439 104.305 46.439 105.807V112.5H65.561V105.807C65.561 104.305 65.9707 102.802 66.7902 101.573L73.4829 90.5098C73.7561 90.1 73.8927 89.5537 73.8927 89.1439V79.7195H65.6976V85.1829H65.561ZM51.9024 60.5976H60.0976V52.4024H51.9024V60.5976ZM105.307 46.939C103.805 46.939 102.439 46.5293 101.073 45.7098L90.0098 39.0171C89.6 38.7439 89.0537 38.6073 88.6439 38.6073H79.2195V46.8024H84.6829C86.1854 46.8024 87.4146 48.0317 87.4146 49.5341C87.4146 51.0366 86.1854 52.2659 84.6829 52.2659H65.561V74.1195H88.6439C89.1902 74.1195 89.6 73.9829 90.0098 73.7098L101.073 67.1537C102.302 66.3341 103.805 65.9244 105.307 65.9244H112V46.939H105.307Z" fill="#5B5B5B"/>
</svg>
