<svg width="112" height="113" viewBox="0 0 112 113" fill="none" xmlns="http://www.w3.org/2000/svg">
<g id="Group">
<g id="Group_2">
<path id="Vector" d="M75.7647 101.49L57.6598 112.051C56.6342 112.65 55.3658 112.65 54.3402 112.051L36.2353 101.49L18.1305 112.051C16.8379 112.805 15.1995 112.593 14.1414 111.535L0.964906 98.3586C-0.0376901 97.356 -0.286235 95.8243 0.347863 94.5562L9.49363 76.2647L0.347863 57.9732C-0.115829 57.0458 -0.115829 55.9542 0.347863 55.0268L9.49363 36.7353L0.347863 18.4438C-0.286235 17.1756 -0.0376901 15.644 0.964906 14.6414L14.1414 1.46491C15.1995 0.406783 16.8379 0.194796 18.1305 0.948797L36.2353 11.51L54.3402 0.948797C55.3658 0.350494 56.6342 0.350494 57.6598 0.948797L75.7647 11.51L93.8695 0.948797C95.1621 0.194796 96.8005 0.406783 97.8586 1.46491L111.035 14.6414C112.093 15.6995 112.305 17.3379 111.551 18.6305L100.99 36.7353L111.551 54.8402C112.15 55.8658 112.15 57.1342 111.551 58.1598L100.99 76.2647L111.551 94.3695C112.305 95.6621 112.093 97.3005 111.035 98.3586L97.8586 111.535C96.8005 112.593 95.1621 112.805 93.8695 112.051L75.7647 101.49ZM24.7059 21.9118C22.8866 21.9118 21.4118 23.3866 21.4118 25.2059V87.7941C21.4118 89.6134 22.8866 91.0882 24.7059 91.0882H87.2941C89.1134 91.0882 90.5882 89.6134 90.5882 87.7941V25.2059C90.5882 23.3866 89.1134 21.9118 87.2941 21.9118H24.7059ZM28 28.5H84V84.5H28V28.5Z" fill="#5B5B5B"/>
</g>
</g>
</svg>
