<svg width="128" height="117" viewBox="0 0 128 117" fill="none" xmlns="http://www.w3.org/2000/svg">
<g id="Group 9085">
<path id="Vector" d="M48.1282 55.2992C48.3593 52.0403 48.966 48.8189 49.9362 45.6992H4.80024C3.5272 45.6992 2.30631 46.2049 1.40613 47.1051C0.505956 48.0053 0.000244141 49.2262 0.000244141 50.4992V66.4992C0.000244141 67.7723 0.505956 68.9931 1.40613 69.8933C2.30631 70.7935 3.5272 71.2992 4.80024 71.2992H49.9362C48.966 68.1795 48.3593 64.9581 48.1282 61.6992H32.0002V55.2992H48.1282ZM9.60024 61.6992C8.96734 61.6992 8.34866 61.5115 7.82242 61.1599C7.29618 60.8083 6.88603 60.3085 6.64383 59.7238C6.40163 59.1391 6.33826 58.4957 6.46173 57.8749C6.5852 57.2542 6.88997 56.684 7.3375 56.2365C7.78503 55.7889 8.35521 55.4842 8.97595 55.3607C9.59669 55.2372 10.2401 55.3006 10.8248 55.5428C11.4096 55.785 11.9093 56.1952 12.2609 56.7214C12.6126 57.2476 12.8002 57.8663 12.8002 58.4992C12.8002 59.3479 12.4631 60.1618 11.863 60.762C11.2629 61.3621 10.4489 61.6992 9.60024 61.6992ZM22.4002 61.6992C21.7673 61.6992 21.1487 61.5115 20.6224 61.1599C20.0962 60.8083 19.686 60.3085 19.4438 59.7238C19.2016 59.1391 19.1383 58.4957 19.2617 57.8749C19.3852 57.2542 19.69 56.684 20.1375 56.2365C20.585 55.7889 21.1552 55.4842 21.776 55.3607C22.3967 55.2372 23.0401 55.3006 23.6248 55.5428C24.2096 55.785 24.7093 56.1952 25.0609 56.7214C25.4126 57.2476 25.6002 57.8663 25.6002 58.4992C25.6002 59.3479 25.2631 60.1618 24.663 60.762C24.0629 61.3621 23.2489 61.6992 22.4002 61.6992Z" fill="#5B5B5B"/>
<path id="Vector_2" d="M0.000244141 95.3V111.3C0.000244141 112.573 0.505956 113.794 1.40613 114.694C2.30631 115.594 3.5272 116.1 4.80024 116.1H91.2002C92.4733 116.1 93.6942 115.594 94.5944 114.694C95.4945 113.794 96.0002 112.573 96.0002 111.3V101.428C89.9144 102.116 83.7519 101.496 77.9245 99.612C72.0971 97.7274 66.739 94.6209 62.2082 90.5H4.80024C3.5272 90.5 2.30631 91.0057 1.40613 91.9059C0.505956 92.8061 0.000244141 94.027 0.000244141 95.3ZM32.0002 100.1H57.6002V106.5H32.0002V100.1ZM22.4002 100.1C23.0331 100.1 23.6518 100.288 24.1781 100.639C24.7043 100.991 25.1145 101.491 25.3567 102.075C25.5989 102.66 25.6622 103.304 25.5388 103.924C25.4153 104.545 25.1105 105.115 24.663 105.563C24.2155 106.01 23.6453 106.315 23.0245 106.439C22.4038 106.562 21.7604 106.499 21.1757 106.256C20.5909 106.014 20.0912 105.604 19.7395 105.078C19.3879 104.552 19.2002 103.933 19.2002 103.3C19.2002 102.451 19.5374 101.637 20.1375 101.037C20.7376 100.437 21.5515 100.1 22.4002 100.1ZM9.60024 100.1C10.2331 100.1 10.8518 100.288 11.3781 100.639C11.9043 100.991 12.3145 101.491 12.5567 102.075C12.7989 102.66 12.8622 103.304 12.7388 103.924C12.6153 104.545 12.3105 105.115 11.863 105.563C11.4155 106.01 10.8453 106.315 10.2245 106.439C9.60379 106.562 8.96038 106.499 8.37566 106.256C7.79093 106.014 7.29116 105.604 6.93954 105.078C6.58792 104.552 6.40024 103.933 6.40024 103.3C6.40024 102.451 6.73739 101.637 7.3375 101.037C7.93762 100.437 8.75155 100.1 9.60024 100.1Z" fill="#5B5B5B"/>
<path id="Vector_3" d="M91.2002 15.2999C92.804 15.3019 94.4065 15.3927 96.0002 15.5719V5.6999C96.0002 4.42686 95.4945 3.20596 94.5944 2.30579C93.6942 1.40561 92.4733 0.899902 91.2002 0.899902H4.80024C3.5272 0.899902 2.30631 1.40561 1.40613 2.30579C0.505956 3.20596 0.000244141 4.42686 0.000244141 5.6999V21.6999C0.000244141 22.9729 0.505956 24.1938 1.40613 25.094C2.30631 25.9942 3.5272 26.4999 4.80024 26.4999H62.2082C70.1391 19.2845 80.4783 15.2903 91.2002 15.2999ZM9.60024 16.8999C8.96734 16.8999 8.34866 16.7122 7.82242 16.3606C7.29618 16.009 6.88603 15.5092 6.64383 14.9245C6.40163 14.3398 6.33826 13.6963 6.46173 13.0756C6.5852 12.4549 6.88997 11.8847 7.3375 11.4372C7.78503 10.9896 8.35522 10.6849 8.97596 10.5614C9.59669 10.4379 10.2401 10.5013 10.8248 10.7435C11.4096 10.9857 11.9093 11.3958 12.2609 11.9221C12.6126 12.4483 12.8002 13.067 12.8002 13.6999C12.8002 14.5486 12.4631 15.3625 11.863 15.9626C11.2629 16.5628 10.4489 16.8999 9.60024 16.8999ZM22.4002 16.8999C21.7673 16.8999 21.1487 16.7122 20.6224 16.3606C20.0962 16.009 19.686 15.5092 19.4438 14.9245C19.2016 14.3398 19.1383 13.6963 19.2617 13.0756C19.3852 12.4549 19.69 11.8847 20.1375 11.4372C20.585 10.9896 21.1552 10.6849 21.776 10.5614C22.3967 10.4379 23.0401 10.5013 23.6248 10.7435C24.2096 10.9857 24.7093 11.3958 25.0609 11.9221C25.4126 12.4483 25.6002 13.067 25.6002 13.6999C25.6002 14.5486 25.2631 15.3625 24.663 15.9626C24.0629 16.5628 23.2489 16.8999 22.4002 16.8999ZM32.0002 10.4999H75.2002V16.8999H32.0002V10.4999Z" fill="#5B5B5B"/>
<path id="Vector_4" d="M91.1999 21.6992C83.9216 21.6992 76.8067 23.8575 70.7549 27.9011C64.7032 31.9448 59.9865 37.6921 57.2011 44.4165C54.4158 51.1408 53.6871 58.54 55.107 65.6785C56.527 72.817 60.0318 79.3742 65.1784 84.5207C70.325 89.6673 76.8821 93.1722 84.0206 94.5921C91.1591 96.012 98.5583 95.2833 105.283 92.498C112.007 89.7127 117.754 84.9959 121.798 78.9442C125.842 72.8925 128 65.7776 128 58.4992C128 48.7393 124.123 39.379 117.221 32.4777C110.32 25.5764 100.96 21.6992 91.1999 21.6992ZM91.1999 80.8992C85.2591 80.8992 79.5615 78.5392 75.3607 74.3384C71.1599 70.1376 68.7999 64.4401 68.7999 58.4992H75.1999C75.1986 61.4744 76.0269 64.3911 77.5917 66.9216C79.1565 69.4521 81.3959 71.4961 84.0583 72.8241C86.7208 74.1521 89.7007 74.7114 92.6635 74.4392C95.6262 74.1671 98.4544 73.0742 100.83 71.2834C103.206 69.4926 105.036 67.0748 106.113 64.3016C107.191 61.5284 107.474 58.5097 106.931 55.5845C106.388 52.6593 105.039 49.9435 103.038 47.7422C101.036 45.541 98.4604 43.9414 95.5999 43.1232L97.4239 44.9632L92.8959 49.4752L82.7199 39.2992L92.8959 29.1232L97.4239 33.6352L94.6719 36.4032C100.201 37.3221 105.184 40.2802 108.639 44.6936C112.093 49.107 113.768 54.6551 113.332 60.2427C112.896 65.8303 110.381 71.0515 106.283 74.8756C102.186 78.6998 96.8043 80.8491 91.1999 80.8992Z" fill="#5B5B5B"/>
</g>
</svg>
