<svg width="136" height="95" viewBox="0 0 136 95" fill="none" xmlns="http://www.w3.org/2000/svg">
<path id="Vector" d="M0 8.13153V86.8684C0 90.8052 3.22105 94.0263 7.15789 94.0263H128.842C132.779 94.0263 136 90.8052 136 86.8684V8.13153C136 4.19469 132.779 0.973633 128.842 0.973633H7.15789C3.22105 0.973633 0 4.19469 0 8.13153ZM23.12 47.5357H74.0126C75.9811 47.5357 77.5916 49.1463 77.5916 51.1147C77.5916 53.0831 75.9811 54.6936 74.0126 54.6936H23.12C21.1516 54.6936 19.5411 53.0831 19.5411 51.1147C19.5411 49.1463 21.1516 47.5357 23.12 47.5357ZM42.6611 72.5526H23.12C21.1516 72.5526 19.5411 70.9421 19.5411 68.9736C19.5411 67.0052 21.1516 65.3947 23.12 65.3947H42.6611C44.6295 65.3947 46.24 67.0052 46.24 68.9736C46.24 70.9421 44.6295 72.5526 42.6611 72.5526ZM112.88 72.5526H61.9874C60.0189 72.5526 58.4084 70.9421 58.4084 68.9736C58.4084 67.0052 60.0189 65.3947 61.9874 65.3947H112.88C114.848 65.3947 116.459 67.0052 116.459 68.9736C116.459 70.9421 114.848 72.5526 112.88 72.5526ZM112.88 54.6936H93.3389C91.3705 54.6936 89.76 53.0831 89.76 51.1147C89.76 49.1463 91.3705 47.5357 93.3389 47.5357H112.88C114.848 47.5357 116.459 49.1463 116.459 51.1147C116.459 53.0831 114.848 54.6936 112.88 54.6936Z" fill="#5B5B5B"/>
</svg>
