<svg width="152" height="123" viewBox="0 0 152 123" fill="none" xmlns="http://www.w3.org/2000/svg">
<g id="Group">
<g id="Group_2">
<path id="Vector" d="M149.467 51.4658H141.867V53.9992V56.5325V104.666C141.867 108.846 138.447 112.266 134.267 112.266H70.9334H68.4H65.8667V119.866C65.8667 121.259 67.0067 122.399 68.4 122.399H149.467C150.86 122.399 152 121.259 152 119.866V53.9992C152 52.6059 150.86 51.4658 149.467 51.4658Z" fill="#5B5B5B"/>
<path id="Vector_2" d="M68.4006 107.2H134.267C135.661 107.2 136.801 106.06 136.801 104.667V54.0004V51.4671V38.8004C136.801 37.4071 135.661 36.2671 134.267 36.2671H116.534V38.8004V41.3338H131.734V54.0004V102.134H68.4006H55.7339V97.0671H53.2006H50.6672V104.667C50.6672 106.06 51.8073 107.2 53.2006 107.2H65.8672H68.4006Z" fill="#5B5B5B"/>
<path id="Vector_3" d="M53.2007 92.0018H108.934C110.327 92.0018 111.467 90.8617 111.467 89.4684V79.3351V76.8017V71.7351V69.2017V66.6684V61.6017V56.5351V38.8017V36.2684V31.2017V23.6017C111.467 22.2084 110.327 21.0684 108.934 21.0684H77.242C77.2927 21.1696 77.3181 21.2963 77.3686 21.3977C77.7233 22.183 78.0273 22.8923 78.3059 23.6017C78.382 23.855 78.4833 24.083 78.5847 24.3363L78.6606 24.539L78.838 25.0709C78.9646 25.4256 79.0661 25.7803 79.1673 26.135C79.2686 26.4644 79.3701 26.7684 79.446 27.0724C79.6487 27.7057 79.826 28.491 80.0287 29.2763L80.1047 29.5803L80.4087 31.2017V31.2523C80.586 32.291 80.7126 33.2791 80.8393 34.2923C80.89 34.9763 80.9661 35.5843 80.9913 36.2177C80.9913 36.3443 81.0166 36.5977 81.0166 36.8003C81.042 37.3323 81.0673 38.0417 81.0673 38.8017C81.0673 40.955 80.9153 43.159 80.586 45.3124C80.3327 46.807 80.0539 48.2003 79.7246 49.5177C78.8634 52.887 77.5713 56.155 75.874 59.2963C74.9114 61.0443 73.8726 62.691 72.7327 64.2617C72.9606 64.1856 73.2141 64.1351 73.4673 64.1351H98.8007C100.194 64.1351 101.334 65.2751 101.334 66.6684V76.8017C101.334 78.195 100.194 79.3351 98.8007 79.3351H73.4673C72.074 79.3351 70.934 78.195 70.934 76.8017V66.6684C70.934 66.6177 70.934 66.5418 70.9594 66.491C70.934 66.5418 70.8833 66.567 70.8327 66.6177C70.5793 66.947 70.3007 67.251 69.9967 67.555C69.642 67.9856 69.2367 68.4164 68.8313 68.8217C68.6034 69.0751 68.3499 69.303 68.0967 69.5564C67.6661 69.9871 67.1847 70.4177 66.7287 70.8231C65.7913 71.7097 64.8034 72.5204 63.79 73.3057C62.6246 74.1418 61.5101 74.8764 60.3954 75.5856C56.6713 77.8403 52.77 79.4871 48.742 80.5257C47.2979 80.8804 45.9554 81.159 44.5873 81.3617C43.9034 81.463 43.2193 81.5644 42.5353 81.615C41.8514 81.6911 41.1927 81.767 40.534 81.7923C39.6726 81.8431 38.8113 81.8684 37.9753 81.8684C37.1392 81.8684 36.3033 81.8431 35.4673 81.7923H35.1633C34.3526 81.7164 33.6434 81.6403 32.934 81.5644C32.782 81.5391 32.6553 81.5391 32.5033 81.5137C32.2753 81.4883 32.0474 81.463 31.7939 81.4376C31.3126 81.3617 30.8566 81.2856 30.4006 81.1844V89.4684C30.4006 90.8617 31.5407 92.0018 32.934 92.0018H45.6006H50.6673H53.2007ZM83.6007 43.8684H98.8007C100.194 43.8684 101.334 45.0084 101.334 46.4017C101.334 47.795 100.194 48.935 98.8007 48.935H83.6007C82.2074 48.935 81.0673 47.795 81.0673 46.4017C81.0673 45.0084 82.2074 43.8684 83.6007 43.8684ZM98.8007 59.0684H83.6007C82.2074 59.0684 81.0673 57.9284 81.0673 56.5351C81.0673 55.1418 82.2074 54.0017 83.6007 54.0017H98.8007C100.194 54.0017 101.334 55.1418 101.334 56.5351C101.334 57.9284 100.194 59.0684 98.8007 59.0684Z" fill="#5B5B5B"/>
<path id="Vector_4" d="M23.9402 61.1681C24.3708 61.4722 24.8521 61.5988 25.3335 61.5988C26.1442 61.5988 26.9548 61.1934 27.4362 60.4588L36.8855 46.2974C37.2402 46.3735 37.6201 46.3988 38.0002 46.3988C42.1802 46.3988 45.6002 42.9787 45.6002 38.7988C45.6002 35.5055 43.4721 32.6934 40.5335 31.6548V13.4655C40.5335 12.0722 39.3935 10.9321 38.0002 10.9321C36.6068 10.9321 35.4668 12.0722 35.4668 13.4655V31.6548C32.5282 32.6934 30.4001 35.5055 30.4001 38.7988C30.4001 40.7494 31.1601 42.5735 32.4014 43.916L23.2308 57.6722C22.4454 58.8121 22.7748 60.4081 23.9402 61.1681ZM38.0002 41.3322C36.6068 41.3322 35.4668 40.1921 35.4668 38.7988C35.4668 37.4055 36.6068 36.2655 38.0002 36.2655C39.3935 36.2655 40.5335 37.4055 40.5335 38.7988C40.5335 40.1921 39.3935 41.3322 38.0002 41.3322Z" fill="#5B5B5B"/>
<path id="Vector_5" d="M126.666 89.4665V79.3331C126.666 77.9398 125.526 76.7998 124.133 76.7998H116.533V79.3331V81.8665V86.9331V89.4665C116.533 89.7198 116.533 89.9732 116.482 90.2265C116.457 90.4797 116.431 90.7332 116.381 90.9864C116.305 91.3411 116.203 91.6705 116.077 91.9998H124.133C125.526 91.9998 126.666 90.8598 126.666 89.4665Z" fill="#5B5B5B"/>
<path id="Vector_6" d="M126.667 69.2008C126.667 67.8075 125.527 66.6675 124.133 66.6675H116.533V71.7342H124.133C125.527 71.7342 126.667 70.5941 126.667 69.2008Z" fill="#5B5B5B"/>
<path id="Vector_7" d="M126.667 59.0646C126.667 57.6713 125.527 56.5312 124.133 56.5312H116.533V61.5979H124.133C125.527 61.5979 126.667 60.4579 126.667 59.0646Z" fill="#5B5B5B"/>
<path id="Vector_8" d="M96.2669 69.2002H76.0002V74.2669H96.2669V69.2002Z" fill="#5B5B5B"/>
<path id="Vector_9" d="M32.5787 76.4198C32.7053 76.4452 32.8067 76.4452 32.9334 76.4452C33.7948 76.5718 34.6307 76.6479 35.4667 76.7238C36.3027 76.7745 37.1386 76.7999 37.9747 76.7999C39.9507 76.7999 41.8761 76.6479 43.7761 76.3691C45.0428 76.1665 46.2587 75.9131 47.4747 75.6091C51.1227 74.6718 54.5428 73.2024 57.6841 71.3024C58.7227 70.6439 59.7361 69.9598 60.724 69.2504C63.6374 67.0464 66.2468 64.4625 68.4508 61.5238C69.5401 60.0546 70.5281 58.5091 71.4147 56.8879C72.8587 54.2024 74.024 51.3145 74.8095 48.2745C75.1135 47.0837 75.3667 45.8424 75.5694 44.5758C75.8481 42.7011 76.0001 40.7758 76.0001 38.7998C76.0001 38.1158 75.9747 37.4571 75.9493 36.7984C75.9493 36.6971 75.924 36.5705 75.924 36.4439C75.8988 35.9118 75.8481 35.3797 75.7974 34.8478C75.6961 33.9357 75.5694 33.0491 75.4174 32.1625C75.316 31.6051 75.2147 31.0478 75.1135 30.4904C74.9361 29.7812 74.7588 29.0718 74.556 28.3879C74.3787 27.7292 74.1508 27.0705 73.9227 26.3864C73.8974 26.3105 73.872 26.2091 73.8468 26.1332C73.5174 25.2718 73.1881 24.4357 72.808 23.5998C72.656 23.2451 72.5041 22.8651 72.3267 22.5105C72.0988 22.0292 71.8454 21.5478 71.5921 21.0665C70.6801 19.3438 69.6414 17.7225 68.4761 16.1772C61.4334 6.6518 50.1094 0.799805 38 0.799805C17.0493 0.799805 0 17.8491 0 38.7998C0 55.0638 10.488 69.3519 25.3334 74.6212C26.9801 75.2039 28.652 75.6852 30.4 76.0399C31.1094 76.1919 31.844 76.3185 32.5787 76.4198ZM38 5.86648C48.3107 5.86648 57.9881 10.7812 64.1694 18.8118C65.5627 20.6357 66.7787 22.5864 67.7667 24.6891C69.8694 29.0971 70.9334 33.8344 70.9334 38.7998C70.9334 56.9638 56.164 71.7332 38 71.7332C36.4547 71.7332 34.8587 71.6318 33.2881 71.4039C30.9573 71.0745 28.7281 70.4919 26.6 69.7066C13.9587 65.0198 5.06667 52.7332 5.06667 38.7998C5.06667 20.6357 19.8361 5.86648 38 5.86648Z" fill="#5B5B5B"/>
</g>
</g>
</svg>
