<svg width="112" height="113" viewBox="0 0 112 113" fill="none" xmlns="http://www.w3.org/2000/svg">
<g id="Group">
<path id="Vector" fill-rule="evenodd" clip-rule="evenodd" d="M86 60.5C71.652 60.5 60 72.152 60 86.5C60 100.848 71.652 112.5 86 112.5C100.348 112.5 112 100.848 112 86.5C112 72.152 100.348 60.5 86 60.5ZM52 72.5C52 69.316 50.736 66.264 48.484 64.016C46.236 61.764 43.184 60.5 40 60.5C32.056 60.5 19.944 60.5 12 60.5C8.816 60.5 5.76399 61.764 3.51599 64.016C1.26399 66.264 0 69.316 0 72.5C0 80.444 0 92.556 0 100.5C0 103.684 1.26399 106.736 3.51599 108.984C5.76399 111.236 8.816 112.5 12 112.5C19.944 112.5 32.056 112.5 40 112.5C43.184 112.5 46.236 111.236 48.484 108.984C50.736 106.736 52 103.684 52 100.5V72.5ZM52 12.5C52 9.316 50.736 6.26399 48.484 4.01599C46.236 1.76399 43.184 0.5 40 0.5C32.056 0.5 19.944 0.5 12 0.5C8.816 0.5 5.76399 1.76399 3.51599 4.01599C1.26399 6.26399 0 9.316 0 12.5C0 20.444 0 32.556 0 40.5C0 43.684 1.26399 46.736 3.51599 48.984C5.76399 51.236 8.816 52.5 12 52.5C19.944 52.5 32.056 52.5 40 52.5C43.184 52.5 46.236 51.236 48.484 48.984C50.736 46.736 52 43.684 52 40.5V12.5ZM112 12.5C112 9.316 110.736 6.26399 108.484 4.01599C106.236 1.76399 103.184 0.5 100 0.5C92.056 0.5 79.944 0.5 72 0.5C68.816 0.5 65.764 1.76399 63.516 4.01599C61.264 6.26399 60 9.316 60 12.5C60 20.444 60 32.556 60 40.5C60 43.684 61.264 46.736 63.516 48.984C65.764 51.236 68.816 52.5 72 52.5C79.944 52.5 92.056 52.5 100 52.5C103.184 52.5 106.236 51.236 108.484 48.984C110.736 46.736 112 43.684 112 40.5V12.5Z" fill="#5B5B5B"/>
</g>
</svg>
