<svg width="104" height="107" viewBox="0 0 104 107" fill="none" xmlns="http://www.w3.org/2000/svg">
<path id="Vector" d="M63.3677 83.7009V106.352H40.717V83.7009C40.717 81.6246 42.4158 79.9258 44.4921 79.9258H59.5926C61.6689 79.9258 63.3677 81.6246 63.3677 83.7009ZM70.1629 60.2952C65.5573 62.749 59.4416 64.8254 52.0424 64.8254C48.154 64.8254 41.17 64.1458 33.8841 60.2952C29.8824 62.7868 24.635 64.8254 18.0663 64.8254C16.443 64.8254 11.9129 64.5988 6.741 62.5225V95.0263C6.741 101.255 11.8374 106.352 18.0663 106.352H33.1668V83.7009C33.1668 77.472 38.2632 72.3756 44.4921 72.3756H59.5926C65.8215 72.3756 70.9179 77.472 70.9179 83.7009V106.352H86.0184C92.2473 106.352 97.3437 101.255 97.3437 95.0263V62.5603C93.7573 64.0703 89.9067 64.8254 86.0184 64.8254C83.7533 64.8254 76.9581 64.4478 70.1629 60.2952ZM103.61 40.7024L94.9654 8.99144C93.6063 4.08379 89.114 0.648438 84.0176 0.648438H20.1426C15.0085 0.648438 10.5161 4.12154 9.19482 9.06694C7.79803 14.3521 6.40124 19.2597 5.00445 24.2051C3.45665 29.5658 1.90885 34.9642 0.361059 40.8534C-0.771475 45.2703 0.814072 49.9892 4.36268 52.6317C5.15545 53.2358 5.94823 53.7265 6.741 54.1795C11.9129 57.0864 16.9716 57.2751 18.0663 57.2751C25.3523 57.2751 30.5242 53.8398 33.4688 51.1594C40.868 56.6334 48.7203 57.2751 52.0424 57.2751C60.4231 57.2751 66.7653 53.9153 70.5404 51.1594C76.7693 56.9354 84.3573 57.2751 86.0184 57.2751C89.9822 57.2751 93.8706 56.2181 97.3437 54.1418C98.061 53.7265 98.7782 53.2358 99.4578 52.745C103.157 50.0269 104.818 45.1948 103.61 40.7024Z" fill="#5B5B5B"/>
</svg>
