<svg width="40" height="41" viewBox="0 0 40 41" fill="none" xmlns="http://www.w3.org/2000/svg">
<g id="Frame" clip-path="url(#clip0_4_251)" filter="url(#filter0_i_4_251)">
<g id="Group 79">
<path id="Vector" d="M8.43456 25.4785C8.43456 27.8034 6.55715 29.6825 4.23425 29.6825C1.91135 29.6825 0.0339355 27.8034 0.0339355 25.4785C0.0339355 23.1535 1.91135 21.2744 4.23425 21.2744H8.43456V25.4785ZM10.5347 25.4785C10.5347 23.1535 12.4121 21.2744 14.735 21.2744C17.0579 21.2744 18.9354 23.1535 18.9354 25.4785V35.9886C18.9354 38.3135 17.0579 40.1926 14.735 40.1926C12.4121 40.1926 10.5347 38.3135 10.5347 35.9886V25.4785Z" fill="#E01E5A"/>
<path id="Vector_2" d="M14.7329 8.59804C12.41 8.59804 10.5326 6.71896 10.5326 4.39399C10.5326 2.06902 12.41 0.189941 14.7329 0.189941C17.0558 0.189941 18.9332 2.06902 18.9332 4.39399V8.59804H14.7329ZM14.7329 10.7319C17.0558 10.7319 18.9332 12.611 18.9332 14.936C18.9332 17.2609 17.0558 19.14 14.7329 19.14H4.20031C1.87741 19.14 0 17.2609 0 14.936C0 12.611 1.87741 10.7319 4.20031 10.7319H14.7329Z" fill="#36C5F0"/>
<path id="Vector_3" d="M31.5674 14.936C31.5674 12.611 33.4448 10.7319 35.7677 10.7319C38.0907 10.7319 39.9681 12.611 39.9681 14.936C39.9681 17.2609 38.0907 19.14 35.7677 19.14H31.5674V14.936ZM29.4673 14.936C29.4673 17.2609 27.5899 19.14 25.267 19.14C22.9441 19.14 21.0667 17.2609 21.0667 14.936V4.39399C21.0667 2.06902 22.9441 0.189941 25.267 0.189941C27.5899 0.189941 29.4673 2.06902 29.4673 4.39399V14.936Z" fill="#2EB67D"/>
<path id="Vector_4" d="M25.267 31.7845C27.5899 31.7845 29.4673 33.6636 29.4673 35.9886C29.4673 38.3135 27.5899 40.1926 25.267 40.1926C22.9441 40.1926 21.0667 38.3135 21.0667 35.9886V31.7845H25.267ZM25.267 29.6825C22.9441 29.6825 21.0667 27.8034 21.0667 25.4785C21.0667 23.1535 22.9441 21.2744 25.267 21.2744H35.7996C38.1225 21.2744 39.9999 23.1535 39.9999 25.4785C39.9999 27.8034 38.1225 29.6825 35.7996 29.6825H25.267Z" fill="#ECB22E"/>
</g>
</g>
<defs>
<filter id="filter0_i_4_251" x="0" y="0.189941" width="40" height="40.5" filterUnits="userSpaceOnUse" color-interpolation-filters="sRGB">
<feFlood flood-opacity="0" result="BackgroundImageFix"/>
<feBlend mode="normal" in="SourceGraphic" in2="BackgroundImageFix" result="shape"/>
<feColorMatrix in="SourceAlpha" type="matrix" values="0 0 0 0 0 0 0 0 0 0 0 0 0 0 0 0 0 0 127 0" result="hardAlpha"/>
<feOffset dy="0.5"/>
<feGaussianBlur stdDeviation="1.25"/>
<feComposite in2="hardAlpha" operator="arithmetic" k2="-1" k3="1"/>
<feColorMatrix type="matrix" values="0 0 0 0 0 0 0 0 0 0 0 0 0 0 0 0 0 0 0.1 0"/>
<feBlend mode="normal" in2="shape" result="effect1_innerShadow_4_251"/>
</filter>
<clipPath id="clip0_4_251">
<rect width="40" height="40" fill="white" transform="translate(0 0.189941)"/>
</clipPath>
</defs>
</svg>
