<svg width="45" height="46" viewBox="0 0 45 46" fill="none" xmlns="http://www.w3.org/2000/svg">
<g id="Frame" clip-path="url(#clip0_4_281)" filter="url(#filter0_i_4_281)">
<g id="Group" filter="url(#filter1_i_4_281)">
<path id="Vector" d="M37.2276 44.0103C40.2522 42.8416 42.6434 40.4504 43.812 37.4258C44.3652 35.993 44.7524 34.3583 44.8576 31.9671C44.8824 31.407 44.9018 30.9368 44.9198 30.4652V14.4888C44.9073 14.1555 44.8935 13.8083 44.8755 13.4183C44.7704 11.0271 44.3832 9.38412 43.83 7.95963C43.2588 6.44801 42.3792 5.09406 41.2286 3.96968C40.1028 2.82594 38.7406 1.93805 37.2455 1.37656C35.8127 0.823357 34.178 0.436118 31.7868 0.33101C29.3776 0.216221 28.6129 0.189941 22.5041 0.189941C16.3954 0.189941 15.6293 0.21622 13.2298 0.321328C10.8386 0.426436 9.19555 0.813675 7.77106 1.36687C6.25945 1.93805 4.90549 2.81764 3.77973 3.96968C2.63738 5.09544 1.74949 6.45769 1.18661 7.95133C0.633411 9.38412 0.246172 11.0188 0.141064 13.41C0.0262755 15.8192 0 16.584 0 22.6941C0 28.8042 0.0262744 29.569 0.131382 31.9685C0.23649 34.3597 0.623731 36.0041 1.17831 37.4272C1.74949 38.9388 2.63738 40.2927 3.77973 41.4185C4.90549 42.5609 6.26775 43.4501 7.76277 44.0116C9.19555 44.5648 10.8303 44.9521 13.2215 45.0572C15.621 45.1637 16.3858 45.1899 22.4958 45.1899C28.6059 45.1899 29.3694 45.1637 31.7702 45.0572C34.1614 44.9521 35.8045 44.5648 37.2289 44.0116L37.2276 44.0103ZM22.5124 41.1447C16.5075 41.1447 15.7869 41.1184 13.422 41.0133C11.2244 40.9165 10.0378 40.5472 9.24673 40.2402C8.27171 39.8792 7.38383 39.3081 6.6619 38.5612C5.91508 37.831 5.34252 36.9528 4.98294 35.9764C4.67592 35.1853 4.30665 33.989 4.20984 31.8011C4.10474 29.4279 4.07846 28.7157 4.07846 22.7107C4.07846 16.7057 4.10474 15.9852 4.20984 13.6216C4.30665 11.424 4.67592 10.2374 4.98294 9.44635C5.34391 8.46996 5.91508 7.58207 6.67158 6.86153C7.40042 6.11471 8.28001 5.54353 9.25502 5.18257C10.0461 4.87554 11.2424 4.50628 13.4303 4.40947C15.8035 4.30436 16.5158 4.27809 22.5194 4.27809C28.523 4.27809 29.2449 4.30436 31.6098 4.40947C33.8074 4.50628 34.994 4.87554 35.7851 5.18257C36.7601 5.54353 37.648 6.11471 38.3685 6.86153C39.1153 7.59175 39.6879 8.46996 40.0475 9.44635C40.3545 10.2374 40.7238 11.4323 40.8206 13.6216C40.9257 15.9949 40.952 16.7071 40.952 22.7107C40.952 28.7143 40.9257 29.4182 40.8206 31.7915C40.7238 33.989 40.3545 35.1757 40.0475 35.9667C39.291 37.9278 37.7351 39.4837 35.7754 40.2388C34.9843 40.5458 33.7894 40.9151 31.6001 41.0119C29.2269 41.117 28.5147 41.1433 22.5111 41.1433L22.5124 41.1447Z" fill="white"/>
<path id="Vector_2" d="M22.5041 11.1323C16.1215 11.1323 10.9436 16.3103 10.9436 22.6928C10.9436 29.0753 16.1215 34.2533 22.5041 34.2533C28.8866 34.2533 34.0632 29.0753 34.0632 22.6928C34.0632 16.3103 28.8852 11.1323 22.5041 11.1323ZM22.5041 30.19C18.3634 30.19 15.0055 26.8321 15.0055 22.6914C15.0055 18.5507 18.3634 15.1928 22.5041 15.1928C26.6448 15.1928 30.0027 18.5507 30.0027 22.6914C30.0027 26.8321 26.6448 30.19 22.5041 30.19Z" fill="white"/>
<path id="Vector_3" d="M37.2194 10.6758C37.2194 9.18489 36.0106 7.97754 34.5198 7.97754C33.0289 7.97754 31.8215 9.18628 31.8215 10.6758C31.8215 12.1653 33.0303 13.374 34.5198 13.374C36.0093 13.374 37.2194 12.1666 37.2194 10.6758Z" fill="white"/>
</g>
</g>
<defs>
<filter id="filter0_i_4_281" x="0" y="0.189941" width="45" height="45.5" filterUnits="userSpaceOnUse" color-interpolation-filters="sRGB">
<feFlood flood-opacity="0" result="BackgroundImageFix"/>
<feBlend mode="normal" in="SourceGraphic" in2="BackgroundImageFix" result="shape"/>
<feColorMatrix in="SourceAlpha" type="matrix" values="0 0 0 0 0 0 0 0 0 0 0 0 0 0 0 0 0 0 127 0" result="hardAlpha"/>
<feOffset dy="0.5"/>
<feGaussianBlur stdDeviation="1.25"/>
<feComposite in2="hardAlpha" operator="arithmetic" k2="-1" k3="1"/>
<feColorMatrix type="matrix" values="0 0 0 0 0 0 0 0 0 0 0 0 0 0 0 0 0 0 0.2 0"/>
<feBlend mode="normal" in2="shape" result="effect1_innerShadow_4_281"/>
</filter>
<filter id="filter1_i_4_281" x="0" y="0.189941" width="44.9197" height="45.5" filterUnits="userSpaceOnUse" color-interpolation-filters="sRGB">
<feFlood flood-opacity="0" result="BackgroundImageFix"/>
<feBlend mode="normal" in="SourceGraphic" in2="BackgroundImageFix" result="shape"/>
<feColorMatrix in="SourceAlpha" type="matrix" values="0 0 0 0 0 0 0 0 0 0 0 0 0 0 0 0 0 0 127 0" result="hardAlpha"/>
<feOffset dy="0.5"/>
<feGaussianBlur stdDeviation="1.25"/>
<feComposite in2="hardAlpha" operator="arithmetic" k2="-1" k3="1"/>
<feColorMatrix type="matrix" values="0 0 0 0 0 0 0 0 0 0 0 0 0 0 0 0 0 0 0.1 0"/>
<feBlend mode="normal" in2="shape" result="effect1_innerShadow_4_281"/>
</filter>
<clipPath id="clip0_4_281">
<rect width="45" height="45" fill="white" transform="translate(0 0.189941)"/>
</clipPath>
</defs>
</svg>
