<svg width="45" height="46" viewBox="0 0 45 46" fill="none" xmlns="http://www.w3.org/2000/svg">
<g id="Frame" clip-path="url(#clip0_4_275)" filter="url(#filter0_i_4_275)">
<path id="Vector" d="M44.7999 8.65001C43.3442 9.27702 41.8139 9.71364 40.2467 9.94907C40.9794 9.82335 42.0575 8.50334 42.4867 7.96905C43.1386 7.16312 43.6355 6.24309 43.952 5.25569C43.952 5.18236 44.0253 5.0776 43.952 5.02522C43.9151 5.00504 43.8737 4.99447 43.8317 4.99447C43.7896 4.99447 43.7482 5.00504 43.7113 5.02522C42.0096 5.94757 40.1985 6.65154 38.3208 7.12047C38.2554 7.14048 38.1857 7.14228 38.1193 7.12567C38.0529 7.10906 37.9923 7.07466 37.944 7.02619C37.7978 6.85199 37.6405 6.68752 37.473 6.5338C36.7071 5.84703 35.8383 5.28493 34.8981 4.86807C33.629 4.34696 32.2582 4.12128 30.8893 4.20807C29.5609 4.29203 28.264 4.64863 27.0793 5.25569C25.9126 5.89571 24.8872 6.7652 24.0648 7.81191C23.1997 8.88923 22.5751 10.1395 22.2331 11.4786C21.951 12.7524 21.919 14.0688 22.1389 15.3548C22.1389 15.5748 22.1389 15.6063 21.9505 15.5748C14.4875 14.4748 8.36434 11.8243 3.36113 6.1357C3.14132 5.88427 3.02618 5.88427 2.84824 6.1357C0.671115 9.4462 1.72828 14.6843 4.44969 17.272C4.81604 17.6177 5.19285 17.9529 5.59059 18.2672C4.34284 18.1786 3.12556 17.8401 2.01089 17.272C1.80155 17.1358 1.68641 17.2091 1.67594 17.4606C1.64627 17.8091 1.64627 18.1596 1.67594 18.5082C1.89434 20.1787 2.55211 21.7612 3.58198 23.0939C4.61185 24.4266 5.97687 25.4615 7.53745 26.093C7.91788 26.2561 8.31428 26.379 8.72021 26.4597C7.5651 26.6873 6.3804 26.7227 5.21378 26.5644C4.96257 26.5121 4.86837 26.6482 4.96257 26.8892C6.50122 31.0797 9.84018 32.3578 12.2895 33.0702C12.6244 33.1226 12.9593 33.1226 13.3361 33.2064C13.3361 33.2064 13.3361 33.2064 13.2733 33.2693C12.5511 34.5893 9.63084 35.4797 8.29107 35.9407C5.84564 36.8199 3.23836 37.1559 0.650181 36.9255C0.241969 36.8626 0.147766 36.8731 0.0430966 36.9255C-0.0615731 36.9779 0.0430966 37.0931 0.158233 37.1979C0.681582 37.5436 1.20493 37.8474 1.74921 38.1407C3.36955 39.0253 5.08257 39.728 6.85709 40.236C16.0471 42.7712 26.3885 40.9065 33.2862 34.0445C38.7081 28.6597 40.6131 21.232 40.6131 13.7939C40.6131 13.511 40.9585 13.3434 41.1574 13.1967C42.5291 12.127 43.7384 10.8636 44.7475 9.4462C44.9223 9.23492 45.0119 8.9659 44.9987 8.69191C44.9987 8.53477 44.9987 8.5662 44.7999 8.65001Z" fill="white"/>
</g>
<defs>
<filter id="filter0_i_4_275" x="0" y="0.189941" width="45" height="45.5" filterUnits="userSpaceOnUse" color-interpolation-filters="sRGB">
<feFlood flood-opacity="0" result="BackgroundImageFix"/>
<feBlend mode="normal" in="SourceGraphic" in2="BackgroundImageFix" result="shape"/>
<feColorMatrix in="SourceAlpha" type="matrix" values="0 0 0 0 0 0 0 0 0 0 0 0 0 0 0 0 0 0 127 0" result="hardAlpha"/>
<feOffset dy="0.5"/>
<feGaussianBlur stdDeviation="1.25"/>
<feComposite in2="hardAlpha" operator="arithmetic" k2="-1" k3="1"/>
<feColorMatrix type="matrix" values="0 0 0 0 0 0 0 0 0 0 0 0 0 0 0 0 0 0 0.1 0"/>
<feBlend mode="normal" in2="shape" result="effect1_innerShadow_4_275"/>
</filter>
<clipPath id="clip0_4_275">
<rect width="45" height="45" fill="white" transform="translate(0 0.189941)"/>
</clipPath>
</defs>
</svg>
